# xmcd
#
# Track frame offsets:
#	150
#	66510
#	103151
#	145092
#	177742
#	206443
#
# Disc length: 3388 seconds
# Revision: 0
# Processed by: cddbd v1.5.2PL0 Copyright (c) Steve Scherf et al.
# Submitted via: dBpowerAMP V12.0
#
DISCID=5d0d3a06
DTITLE=Ståle Kleiberg - Kleiberg: The Bell Reef
DYEAR=2003
DGENRE=Classical
TTITLE0=Lamento: Cissi Klein in Memoriam
TTITLE1=Kammersymfoni: 1) Tempo Rubato
TTITLE2=Kammersymfoni: 2) Finale
TTITLE3=The Bell Reef: 1) Departure
TTITLE4=The Bell Reef: 2) Shipwreck
TTITLE5=The Bell Reef: 3) the Bell Reef
EXTD=
EXTT0=
EXTT1=
EXTT2=
EXTT3=
EXTT4=
EXTT5=
PLAYORDER=
